<svg xmlns="http://www.w3.org/2000/svg" xmlns:xlink="http://www.w3.org/1999/xlink" width="6912" zoomAndPan="magnify" viewBox="0 0 5184 2592.000001" height="3456" preserveAspectRatio="xMidYMid meet" version="1.0"><path fill="#d6eae8" d="M 3516.546875 1490.863281 C 3508.46875 1485.660156 3499.851562 1480.273438 3491.054688 1474.886719 L 3491.054688 184.289062 L 1812.5 184.289062 L 1812.5 973.117188 L 1812.679688 973.296875 C 1663.476562 1038.464844 1568.5 1179.03125 1552.699219 1202.371094 C 1385.363281 1450.292969 1417.683594 1818.316406 1612.667969 2060.851562 C 1863.128906 2372.328125 2324.738281 2405.898438 2611.828125 2240.554688 C 2677.179688 2202.855469 2760.308594 2139.484375 2826.023438 2060.851562 L 3491.054688 2060.851562 L 3491.054688 1582.960938 C 3561.433594 1605.042969 3660.722656 1633.945312 3670.238281 1616.171875 C 3680.832031 1596.605469 3577.054688 1529.640625 3516.546875 1490.863281 Z M 2556.527344 2150.074219 C 2497.996094 2179.339844 2436.59375 2182.570312 2398.710938 2162.105469 C 2404.992188 2119.558594 2444.3125 2072.34375 2503.023438 2043.078125 C 2561.554688 2013.636719 2622.78125 2010.585938 2660.664062 2031.050781 C 2654.558594 2073.597656 2615.058594 2120.632812 2556.527344 2150.074219 Z M 2556.527344 2150.074219 " fill-opacity="1" fill-rule="nonzero"/><path fill="#ae2c36" d="M 2447.726562 835.421875 C 2466.9375 846.554688 2468.910156 878.6875 2452.394531 907.234375 C 2435.875 935.957031 2406.96875 950.140625 2387.757812 939.1875 C 2368.726562 928.238281 2366.570312 895.921875 2383.269531 867.378906 C 2399.785156 838.65625 2428.691406 824.472656 2447.726562 835.421875 Z M 2447.726562 835.421875 " fill-opacity="1" fill-rule="nonzero"/><path fill="#ae2c36" d="M 3229.996094 338.140625 C 3246.875 352.324219 3243.28125 384.28125 3221.917969 409.59375 C 3200.730469 434.90625 3169.667969 443.882812 3152.792969 429.699219 C 3135.914062 415.515625 3139.507812 383.5625 3160.691406 358.25 C 3182.058594 332.9375 3212.941406 323.960938 3229.996094 338.140625 Z M 3229.996094 338.140625 " fill-opacity="1" fill-rule="nonzero"/><path fill="#349370" d="M 2900.894531 346.582031 C 2931.953125 385.355469 2908.253906 455.730469 2847.925781 504.023438 C 2787.601562 552.136719 2713.449219 559.855469 2682.386719 521.078125 C 2651.507812 482.300781 2675.207031 411.925781 2735.535156 363.636719 C 2795.859375 315.523438 2869.832031 307.804688 2900.894531 346.582031 Z M 2900.894531 346.582031 " fill-opacity="1" fill-rule="nonzero"/><path fill="#604533" d="M 3516.546875 1490.863281 C 3577.054688 1529.640625 3680.832031 1596.605469 3670.238281 1616.171875 C 3660.722656 1633.945312 3561.433594 1605.042969 3491.054688 1582.960938 C 3483.871094 1580.804688 3476.867188 1578.652344 3470.40625 1576.496094 C 3351.546875 1539.15625 3181.878906 1477.578125 2978.996094 1374.355469 L 3013.644531 1310.085938 L 3048.117188 1245.996094 C 3048.296875 1246.171875 3048.65625 1246.171875 3048.835938 1246.351562 C 3242.386719 1328.574219 3388.535156 1410.796875 3491.054688 1474.886719 C 3499.851562 1480.273438 3508.46875 1485.660156 3516.546875 1490.863281 Z M 3516.546875 1490.863281 " fill-opacity="1" fill-rule="nonzero"/><path fill="#f2778d" d="M 3331.257812 922.851562 C 3347.597656 944.933594 3275.78125 1036.488281 3048.835938 1246.175781 L 3048.835938 1246.351562 C 3048.65625 1246.175781 3048.296875 1246.175781 3048.117188 1245.996094 L 2947.214844 1198.78125 C 2933.75 1179.210938 2862.113281 1081.011719 2719.195312 1041.875 C 2672.691406 1029.128906 2629.78125 1025.71875 2592.617188 1027.15625 L 2592.617188 1026.976562 C 2606.800781 1015.304688 2620.625 1000.765625 2631.757812 982.8125 C 2671.976562 918.363281 2638.9375 875.816406 2671.796875 823.035156 C 2709.859375 762 2782.214844 774.027344 2911.664062 723.222656 C 2993.359375 691.265625 3054.042969 651.230469 3091.390625 623.40625 C 3133.761719 588.757812 3189.417969 580.859375 3231.253906 603.480469 C 3264.828125 621.789062 3291.222656 663.441406 3291.222656 703.292969 C 3291.402344 749.609375 3256.929688 773.488281 3271.292969 803.109375 C 3282.242188 825.910156 3308.996094 824.652344 3311.328125 843.144531 C 3314.382812 868.277344 3266.625 886.230469 3271.292969 902.925781 C 3275.601562 918.902344 3321.203125 909.386719 3331.257812 922.851562 Z M 3331.257812 922.851562 " fill-opacity="1" fill-rule="nonzero"/><path fill="#f9b132" d="M 3151.355469 1804.671875 C 3154.050781 1871.097656 3080.257812 1922.980469 3071.460938 1928.902344 C 3002.335938 1976.296875 2924.59375 1959.421875 2898.738281 1951.882812 C 2931.414062 1886.175781 2947.035156 1814.726562 2931.59375 1741.480469 C 2927.644531 1723.167969 2922.078125 1705.753906 2915.4375 1689.597656 C 2900.714844 1654.410156 2878.628906 1624.070312 2851.519531 1599.476562 L 2851.699219 1599.296875 C 2920.824219 1528.386719 3011.3125 1503.429688 3071.460938 1535.746094 C 3077.382812 1538.796875 3116.523438 1559.800781 3131.425781 1601.632812 C 3145.429688 1641.125 3124.066406 1659.796875 3131.425781 1721.910156 C 3137.351562 1771.460938 3150.097656 1772 3151.355469 1804.671875 Z M 3151.355469 1804.671875 " fill-opacity="1" fill-rule="nonzero"/><path fill="#fbe2ae" d="M 3048.117188 1245.996094 L 3013.644531 1310.085938 L 2978.996094 1374.355469 L 2877.910156 1327.320312 L 2947.214844 1198.78125 Z M 3048.117188 1245.996094 " fill-opacity="1" fill-rule="nonzero"/><path fill="#f6a7b7" d="M 2912.5625 1263.050781 L 2877.910156 1327.320312 C 2852.953125 1329.113281 2725.660156 1334.5 2606.082031 1251.558594 C 2498.175781 1176.519531 2469.089844 1078.320312 2462.625 1053.542969 C 2478.785156 1047.082031 2526.363281 1029.488281 2592.617188 1027.15625 C 2629.78125 1025.71875 2672.691406 1029.128906 2719.195312 1041.875 C 2862.113281 1081.011719 2933.75 1179.210938 2947.214844 1198.78125 Z M 2912.5625 1263.050781 " fill-opacity="1" fill-rule="nonzero"/><path fill="#fbe2ae" d="M 2660.664062 2031.050781 C 2662.996094 2016.332031 2661.203125 2002.148438 2654.917969 1989.402344 C 2630.140625 1940.035156 2546.113281 1932.132812 2467.296875 1971.628906 C 2388.296875 2010.945312 2344.308594 2082.933594 2368.90625 2132.304688 C 2375.367188 2145.050781 2385.601562 2154.921875 2398.710938 2162.105469 C 2436.59375 2182.570312 2497.996094 2179.339844 2556.527344 2150.078125 C 2615.058594 2120.632812 2654.558594 2073.597656 2660.664062 2031.050781 Z M 2931.59375 1741.480469 C 2947.035156 1814.726562 2931.414062 1886.175781 2898.738281 1951.882812 C 2879.527344 1990.480469 2854.390625 2027.101562 2826.023438 2060.851562 C 2760.308594 2139.484375 2677.179688 2202.855469 2611.828125 2240.554688 C 2324.738281 2405.898438 1863.128906 2372.328125 1612.667969 2060.851562 C 1417.683594 1818.316406 1385.363281 1450.292969 1552.699219 1202.371094 C 1568.5 1179.03125 1663.476562 1038.464844 1812.679688 973.296875 C 1866.722656 949.601562 1927.765625 935.777344 1994.914062 941.34375 C 2000.660156 941.703125 2006.40625 942.238281 2012.332031 942.957031 C 2127.417969 957.5 2212.703125 1023.027344 2266.746094 1079.574219 C 2303.910156 1118.53125 2328.507812 1167.363281 2339.460938 1220.144531 C 2351.667969 1279.386719 2384.347656 1370.941406 2471.964844 1442.035156 C 2543.0625 1499.660156 2619.726562 1519.050781 2678.078125 1524.4375 C 2743.433594 1530.359375 2805.015625 1556.570312 2851.519531 1599.476562 C 2878.628906 1624.070312 2900.714844 1654.410156 2915.4375 1689.597656 C 2922.078125 1705.753906 2927.644531 1723.167969 2931.59375 1741.480469 Z M 2578.253906 1712.21875 C 2598.722656 1694.265625 2598.722656 1649.382812 2578.792969 1620.480469 C 2558.863281 1591.578125 2522.234375 1588.882812 2490.636719 1586.730469 C 2489.917969 1586.730469 2423.484375 1582.242188 2399.246094 1602.527344 C 2351.667969 1642.382812 2369.265625 1746.148438 2417.203125 1800.003906 C 2427.4375 1811.496094 2454.1875 1841.832031 2488.480469 1837.882812 C 2493.6875 1837.34375 2513.796875 1835.191406 2524.390625 1819.933594 C 2544.320312 1791.386719 2506.972656 1749.917969 2524.929688 1728.195312 C 2537.496094 1713.117188 2560.117188 1728.195312 2578.253906 1712.21875 Z M 2231.914062 1686.1875 C 2247.890625 1662.667969 2223.296875 1603.425781 2178.050781 1579.191406 C 2134.601562 1555.851562 2074.992188 1565.90625 2055.0625 1596.246094 C 2041.417969 1617.25 2057.574219 1632.867188 2045.1875 1669.671875 C 2029.566406 1715.988281 1994.734375 1719.039062 1995.273438 1746.328125 C 1995.8125 1780.976562 2052.726562 1813.46875 2101.386719 1819.214844 C 2113.054688 1820.648438 2168.894531 1829.445312 2185.230469 1802.878906 C 2201.929688 1775.769531 2162.070312 1736.273438 2180.742188 1710.242188 C 2194.03125 1691.574219 2220.242188 1703.421875 2231.914062 1686.1875 Z M 2108.925781 1291.59375 C 2111.796875 1247.25 2037.648438 1194.292969 2007.304688 1209.191406 C 1986.835938 1219.066406 1999.402344 1253.175781 1972.472656 1272.742188 C 1945.183594 1292.492188 1915.558594 1269.871094 1892.933594 1289.976562 C 1879.46875 1301.828125 1878.929688 1319.957031 1877.851562 1356.042969 C 1876.597656 1394.101562 1877.3125 1431.800781 1903.167969 1459.089844 C 1913.761719 1470.21875 1926.328125 1473.628906 1939.078125 1477.042969 C 1973.011719 1486.015625 2020.949219 1480.273438 2037.109375 1453.164062 C 2049.675781 1432.339844 2031.183594 1419.234375 2037.109375 1387.101562 C 2046.984375 1333.960938 2106.410156 1329.472656 2108.925781 1291.59375 Z M 2014.125 2031.410156 C 2009.816406 1974.859375 2049.136719 1957.089844 2037.109375 1925.671875 C 2025.976562 1896.769531 1978.9375 1881.6875 1942.308594 1887.792969 C 1880.007812 1898.023438 1843.558594 1970.730469 1852.539062 2013.457031 C 1853.253906 2017.050781 1854.332031 2023.152344 1859.359375 2034.105469 C 1866.722656 2049.902344 1876.777344 2072.703125 1888.445312 2103.21875 C 1895.089844 2133.019531 1924.175781 2146.664062 1942.308594 2139.125 C 1950.03125 2135.894531 1950.03125 2129.429688 1960.261719 2118.660156 C 1982.707031 2095.140625 2007.664062 2103.9375 2019.152344 2087.242188 C 2028.667969 2073.417969 2016.460938 2061.03125 2014.125 2031.410156 Z M 1767.792969 1692.289062 C 1763.664062 1657.285156 1804.777344 1641.664062 1799.929688 1613.121094 C 1795.441406 1586.011719 1751.273438 1562.855469 1714.46875 1567.519531 C 1651.808594 1575.242188 1628.289062 1661.054688 1624.695312 1675.234375 C 1620.746094 1690.855469 1614.640625 1716.347656 1624.15625 1746.148438 C 1625.953125 1752.070312 1645.523438 1810.058594 1696.515625 1818.855469 C 1748.222656 1827.652344 1801.1875 1780.4375 1799.570312 1747.046875 C 1798.496094 1723.707031 1771.023438 1720.117188 1767.792969 1692.289062 Z M 1767.792969 1692.289062 " fill-opacity="1" fill-rule="nonzero"/><path fill="#f2b662" d="M 2654.917969 1989.402344 C 2661.203125 2002.148438 2662.996094 2016.332031 2660.664062 2031.050781 C 2622.78125 2010.585938 2561.554688 2013.636719 2503.023438 2043.078125 C 2444.3125 2072.34375 2404.992188 2119.558594 2398.710938 2162.105469 C 2385.601562 2154.921875 2375.367188 2145.050781 2368.90625 2132.304688 C 2344.308594 2082.933594 2388.296875 2010.945312 2467.296875 1971.628906 C 2546.113281 1932.132812 2630.140625 1940.035156 2654.917969 1989.402344 Z M 2654.917969 1989.402344 " fill-opacity="1" fill-rule="nonzero"/><path fill="#f2778d" d="M 2578.792969 1620.480469 C 2598.722656 1649.382812 2598.722656 1694.265625 2578.253906 1712.21875 C 2560.117188 1728.195312 2537.496094 1713.117188 2524.929688 1728.195312 C 2506.972656 1749.917969 2544.320312 1791.386719 2524.390625 1819.933594 C 2513.796875 1835.191406 2493.6875 1837.34375 2488.480469 1837.882812 C 2454.1875 1841.832031 2427.4375 1811.496094 2417.203125 1800.003906 C 2369.265625 1746.148438 2351.667969 1642.382812 2399.246094 1602.527344 C 2423.484375 1582.242188 2489.917969 1586.730469 2490.636719 1586.730469 C 2522.234375 1588.882812 2558.863281 1591.578125 2578.792969 1620.480469 Z M 2578.792969 1620.480469 " fill-opacity="1" fill-rule="nonzero"/><path fill="#f47a21" d="M 1812.5 184.289062 L 2491.890625 184.289062 C 2469.628906 204.578125 2433.003906 243.890625 2411.996094 304.03125 C 2371.597656 420.183594 2421.152344 522.332031 2431.925781 543.699219 C 2451.675781 585.167969 2443.054688 633.996094 2411.996094 663.441406 C 2375.367188 698.085938 2314.144531 699.523438 2272.132812 663.441406 C 2241.609375 629.152344 2190.976562 620.890625 2152.195312 643.511719 C 2114.851562 665.054688 2096.894531 710.117188 2108.386719 751.945312 C 2112.515625 767.023438 2116.644531 782.105469 2117.183594 797.722656 C 2117.722656 821.0625 2113.414062 852.835938 2092.226562 882.996094 C 2063.320312 924.109375 2020.949219 937.035156 1994.914062 941.164062 L 1994.914062 941.34375 C 1927.765625 935.777344 1866.722656 949.601562 1812.679688 973.296875 L 1812.5 973.117188 Z M 1812.5 184.289062 " fill-opacity="1" fill-rule="nonzero"/><path fill="#349370" d="M 2178.050781 1579.191406 C 2223.296875 1603.425781 2247.890625 1662.667969 2231.914062 1686.1875 C 2220.242188 1703.421875 2194.03125 1691.574219 2180.742188 1710.242188 C 2162.070312 1736.273438 2201.929688 1775.769531 2185.230469 1802.878906 C 2168.894531 1829.445312 2113.054688 1820.648438 2101.386719 1819.214844 C 2052.730469 1813.46875 1995.8125 1780.976562 1995.273438 1746.328125 C 1994.734375 1719.039062 2029.566406 1715.988281 2045.1875 1669.671875 C 2057.574219 1632.867188 2041.417969 1617.25 2055.0625 1596.246094 C 2074.992188 1565.90625 2134.601562 1555.851562 2178.050781 1579.191406 Z M 2178.050781 1579.191406 " fill-opacity="1" fill-rule="nonzero"/><path fill="#ae2c36" d="M 2007.304688 1209.191406 C 2037.648438 1194.292969 2111.796875 1247.25 2108.925781 1291.59375 C 2106.410156 1329.472656 2046.984375 1333.960938 2037.109375 1387.101562 C 2031.183594 1419.234375 2049.675781 1432.339844 2037.109375 1453.164062 C 2020.949219 1480.273438 1973.011719 1486.019531 1939.078125 1477.042969 C 1926.328125 1473.628906 1913.761719 1470.21875 1903.167969 1459.089844 C 1877.3125 1431.800781 1876.597656 1394.101562 1877.851562 1356.042969 C 1878.929688 1319.957031 1879.46875 1301.828125 1892.933594 1289.976562 C 1915.558594 1269.871094 1945.183594 1292.492188 1972.472656 1272.742188 C 1999.402344 1253.175781 1986.835938 1219.066406 2007.304688 1209.191406 Z M 2007.304688 1209.191406 " fill-opacity="1" fill-rule="nonzero"/><path fill="#3b5489" d="M 2037.109375 1925.671875 C 2049.136719 1957.089844 2009.816406 1974.859375 2014.125 2031.410156 C 2016.460938 2061.03125 2028.667969 2073.417969 2019.152344 2087.242188 C 2007.664062 2103.9375 1982.707031 2095.140625 1960.261719 2118.660156 C 1950.03125 2129.429688 1950.03125 2135.894531 1942.308594 2139.125 C 1924.175781 2146.664062 1895.089844 2133.019531 1888.445312 2103.21875 C 1876.777344 2072.703125 1866.722656 2049.902344 1859.359375 2034.105469 C 1854.332031 2023.152344 1853.253906 2017.050781 1852.539062 2013.457031 C 1843.558594 1970.730469 1880.007812 1898.023438 1942.308594 1887.792969 C 1978.9375 1881.6875 2025.976562 1896.769531 2037.109375 1925.671875 Z M 2037.109375 1925.671875 " fill-opacity="1" fill-rule="nonzero"/><path fill="#f47a21" d="M 1799.929688 1613.121094 C 1804.777344 1641.664062 1763.664062 1657.28125 1767.792969 1692.289062 C 1771.023438 1720.117188 1798.496094 1723.707031 1799.570312 1747.046875 C 1801.1875 1780.4375 1748.222656 1827.652344 1696.515625 1818.855469 C 1645.523438 1810.058594 1625.953125 1752.070312 1624.15625 1746.148438 C 1614.640625 1716.347656 1620.746094 1690.855469 1624.695312 1675.234375 C 1628.289062 1661.054688 1651.808594 1575.242188 1714.46875 1567.519531 C 1751.273438 1562.855469 1795.441406 1586.011719 1799.929688 1613.121094 Z M 1799.929688 1613.121094 " fill-opacity="1" fill-rule="nonzero"/><path fill="#fbe2ae" d="M 2912.546875 1281 C 2909.996094 1281 2907.429688 1280.464844 2904.988281 1279.3125 L 2762.96875 1213.25 C 2753.992188 1209.085938 2750.078125 1198.402344 2754.257812 1189.410156 C 2758.441406 1180.414062 2769.144531 1176.554688 2778.121094 1180.71875 L 2920.140625 1246.785156 C 2929.117188 1250.949219 2933.03125 1261.628906 2928.847656 1270.625 C 2925.796875 1277.160156 2919.3125 1281 2912.546875 1281 Z M 2912.546875 1281 " fill-opacity="1" fill-rule="nonzero"/></svg>