<svg xmlns="http://www.w3.org/2000/svg" xmlns:xlink="http://www.w3.org/1999/xlink" width="500" zoomAndPan="magnify" viewBox="0 0 375 374.999991" height="500" preserveAspectRatio="xMidYMid meet" version="1.0"><defs><g/></defs><g fill="#ff914d" fill-opacity="1"><g transform="translate(77.601688, 162.770691)"><g><path d="M 69.167969 -153.441406 L 18.386719 -153.441406 C 15.539062 -153.441406 13.789062 -151.46875 13.789062 -149.5 L 13.789062 -127.390625 C 13.789062 -125.640625 15.539062 -123.671875 18.386719 -123.671875 L 40.054688 -123.671875 L 40.054688 -46.183594 C 40.054688 -46.183594 40.054688 -31.957031 26.265625 -31.957031 L 7.878906 -31.957031 C 5.253906 -31.957031 3.285156 -29.988281 3.285156 -28.019531 L 3.285156 -3.722656 C 3.285156 -1.96875 5.253906 0 7.878906 0 L 26.265625 0 C 26.265625 0 73.546875 0 73.546875 -46.183594 L 73.546875 -149.5 C 73.546875 -151.46875 72.015625 -153.441406 69.167969 -153.441406 Z M 69.167969 -153.441406 "/></g></g></g><g fill="#f8b34a" fill-opacity="1"><g transform="translate(157.722777, 162.770691)"><g><path d="M 67.636719 -40.273438 C 99.8125 -40.273438 126.296875 -65.667969 126.296875 -97.40625 C 126.296875 -128.925781 99.8125 -154.972656 67.636719 -154.972656 C 35.242188 -154.972656 8.753906 -128.925781 8.753906 -97.40625 C 8.753906 -65.667969 35.242188 -40.273438 67.636719 -40.273438 Z M 67.636719 -123.234375 C 81.644531 -123.234375 92.808594 -111.851562 92.808594 -97.40625 C 92.808594 -82.738281 81.644531 -72.015625 67.636719 -72.015625 C 53.628906 -72.015625 42.246094 -82.738281 42.246094 -97.40625 C 42.246094 -111.851562 53.628906 -123.234375 67.636719 -123.234375 Z M 119.730469 -3.722656 L 119.730469 -27.796875 C 119.730469 -29.769531 117.761719 -31.738281 114.914062 -31.738281 L 19.042969 -31.738281 C 16.199219 -31.738281 14.445312 -29.769531 14.445312 -27.796875 L 14.445312 -3.722656 C 14.445312 -1.96875 16.199219 0 19.042969 0 L 114.914062 0 C 117.761719 0 119.730469 -1.96875 119.730469 -3.722656 Z M 119.730469 -3.722656 "/></g></g></g><g fill="#004aad" fill-opacity="1"><g transform="translate(66.445439, 337.52068)"><g><path d="M 69.167969 -153.441406 L 18.386719 -153.441406 C 15.539062 -153.441406 13.789062 -151.46875 13.789062 -149.5 L 13.789062 -127.390625 C 13.789062 -125.640625 15.539062 -123.671875 18.386719 -123.671875 L 40.054688 -123.671875 L 40.054688 -46.183594 C 40.054688 -46.183594 40.054688 -31.957031 26.265625 -31.957031 L 7.878906 -31.957031 C 5.253906 -31.957031 3.285156 -29.988281 3.285156 -28.019531 L 3.285156 -3.722656 C 3.285156 -1.96875 5.253906 0 7.878906 0 L 26.265625 0 C 26.265625 0 73.546875 0 73.546875 -46.183594 L 73.546875 -149.5 C 73.546875 -151.46875 72.015625 -153.441406 69.167969 -153.441406 Z M 69.167969 -153.441406 "/></g></g></g><g fill="#ff914d" fill-opacity="1"><g transform="translate(146.566527, 337.52068)"><g><path d="M 139.429688 -153.222656 L 18.386719 -153.222656 C 15.761719 -153.222656 13.789062 -151.25 13.789062 -149.28125 L 13.789062 -62.382812 C 13.789062 -60.851562 14.226562 -45.746094 21.449219 -31.082031 C 32.394531 -10.726562 53.191406 2.1875 79.019531 2.1875 C 105.503906 2.1875 125.640625 -9.851562 136.367188 -30.863281 C 143.808594 -45.746094 144.027344 -60.851562 144.027344 -62.382812 L 144.027344 -149.28125 C 144.027344 -151.25 142.277344 -153.222656 139.429688 -153.222656 Z M 105.941406 -44.871094 C 100.46875 -34.585938 91.714844 -29.769531 79.019531 -29.769531 C 66.542969 -29.769531 57.566406 -34.804688 51.875 -44.871094 C 47.28125 -53.847656 47.28125 -62.382812 47.28125 -62.382812 L 47.28125 -123.453125 L 110.757812 -123.453125 L 110.757812 -62.601562 C 110.757812 -62.382812 110.539062 -53.410156 105.941406 -44.871094 Z M 105.941406 -44.871094 "/></g></g></g></svg>