<svg xmlns="http://www.w3.org/2000/svg" xmlns:xlink="http://www.w3.org/1999/xlink" width="500" zoomAndPan="magnify" viewBox="0 0 375 374.999991" height="500" preserveAspectRatio="xMidYMid meet" version="1.0"><defs><g/></defs><g fill="#ff914d" fill-opacity="1"><g transform="translate(33.542712, 179.709073)"><g><path d="M 9.273438 -91.761719 L 48.300781 -91.761719 L 48.300781 -109.476562 C 48.300781 -110.03125 47.886719 -110.722656 46.917969 -110.722656 L 9.273438 -110.722656 C 8.304688 -110.722656 7.75 -110.03125 7.75 -109.476562 L 7.75 -93.007812 C 7.75 -92.453125 8.304688 -91.761719 9.273438 -91.761719 Z M 27.265625 -72.800781 L 27.265625 -32.664062 C 27.265625 -32.664062 27.265625 -20.484375 15.222656 -20.484375 L 1.523438 -20.484375 C 0.691406 -20.484375 0 -19.929688 0 -19.238281 L 0 -1.246094 C 0 -0.691406 0.691406 0 1.523438 0 L 15.222656 0 C 15.222656 0 48.300781 0 48.300781 -32.664062 L 48.300781 -72.800781 Z M 27.265625 -72.800781 "/></g></g></g><g fill="#f8b34a" fill-opacity="1"><g transform="translate(84.340491, 179.709073)"><g><path d="M 63.664062 -55.082031 C 63.664062 -60.898438 59.097656 -65.601562 53.285156 -65.601562 C 47.472656 -65.601562 42.90625 -60.898438 42.90625 -55.082031 C 42.90625 -49.410156 47.472656 -44.703125 53.285156 -44.703125 C 59.097656 -44.703125 63.664062 -49.410156 63.664062 -55.082031 Z M 106.570312 -55.5 C 106.570312 -83.042969 88.714844 -110.722656 53.421875 -110.722656 C 17.578125 -110.722656 0 -83.042969 0 -55.5 C 0 -27.820312 17.578125 0 53.421875 0 C 88.714844 0 106.570312 -27.820312 106.570312 -55.5 Z M 85.808594 -55.082031 C 85.808594 -37.230469 74.875 -19.375 53.421875 -19.375 C 31.695312 -19.375 20.898438 -37.230469 20.898438 -55.082031 C 20.898438 -73.214844 31.695312 -91.207031 53.421875 -91.207031 C 74.875 -91.207031 85.808594 -73.214844 85.808594 -55.082031 Z M 85.808594 -55.082031 "/></g></g></g><g fill="#004aad" fill-opacity="1"><g transform="translate(196.186431, 179.709073)"><g><path d="M 9.273438 -91.761719 L 48.300781 -91.761719 L 48.300781 -109.476562 C 48.300781 -110.03125 47.886719 -110.722656 46.917969 -110.722656 L 9.273438 -110.722656 C 8.304688 -110.722656 7.75 -110.03125 7.75 -109.476562 L 7.75 -93.007812 C 7.75 -92.453125 8.304688 -91.761719 9.273438 -91.761719 Z M 27.265625 -72.800781 L 27.265625 -32.664062 C 27.265625 -32.664062 27.265625 -20.484375 15.222656 -20.484375 L 1.523438 -20.484375 C 0.691406 -20.484375 0 -19.929688 0 -19.238281 L 0 -1.246094 C 0 -0.691406 0.691406 0 1.523438 0 L 15.222656 0 C 15.222656 0 48.300781 0 48.300781 -32.664062 L 48.300781 -72.800781 Z M 27.265625 -72.800781 "/></g></g></g><g fill="#ff914d" fill-opacity="1"><g transform="translate(246.984217, 179.709073)"><g><path d="M 81.65625 -110.722656 L 63.664062 -110.722656 C 62.695312 -110.722656 62.140625 -110.03125 62.140625 -109.476562 L 62.140625 -36.953125 C 62.140625 -25.742188 51.902344 -20.34375 41.519531 -20.34375 C 31.277344 -20.34375 22.144531 -26.15625 20.898438 -37.089844 L 20.898438 -90.652344 L 0 -90.652344 L 0 -36.953125 C 0 -14.117188 18.683594 0 41.519531 0 C 65.050781 0 83.042969 -13.5625 83.042969 -36.953125 L 83.042969 -109.476562 C 83.042969 -110.03125 82.347656 -110.722656 81.65625 -110.722656 Z M 81.65625 -110.722656 "/></g></g></g><g fill="#ff914d" fill-opacity="1"><g transform="translate(36.895104, 330.747227)"><g><path d="M 103.179688 -1.972656 L 53.230469 -130.453125 C 52.738281 -131.765625 50.4375 -131.765625 49.945312 -130.453125 L 0.164062 -1.972656 C -0.328125 -0.984375 0.328125 0 1.808594 0 L 24.316406 0 C 24.972656 0 25.792969 -0.328125 25.957031 -0.984375 L 51.589844 -74.261719 L 77.546875 -0.984375 C 77.710938 -0.328125 78.535156 0 79.027344 0 L 101.699219 0 C 102.851562 0 103.671875 -0.984375 103.179688 -1.972656 Z M 103.179688 -1.972656 "/></g></g></g><g fill="#004aad" fill-opacity="1"><g transform="translate(145.345875, 330.747227)"><g><path d="M 89.707031 -2.136719 C 81.492188 -20.371094 72.621094 -38.445312 64.40625 -57.011719 C 77.546875 -61.777344 88.554688 -72.289062 88.554688 -92.335938 C 88.554688 -131.109375 51.589844 -131.4375 44.195312 -131.4375 L 1.644531 -131.4375 C 0.820312 -131.4375 0 -130.617188 0 -129.957031 L 0 -107.613281 L 44.195312 -107.613281 C 48.140625 -107.613281 63.582031 -106.792969 63.582031 -92.335938 C 63.582031 -77.875 49.617188 -77.21875 44.195312 -77.21875 L 0 -77.21875 L 0 -1.480469 C 0 -0.820312 0.820312 0 1.644531 0 L 23.164062 0 C 24.152344 0 24.972656 -0.820312 24.972656 -1.480469 L 24.972656 -53.066406 L 39.101562 -53.066406 L 63.089844 -0.984375 C 63.253906 -0.492188 64.238281 0 64.734375 0 L 88.226562 0 C 89.542969 0 90.199219 -0.984375 89.707031 -2.136719 Z M 89.707031 -2.136719 "/></g></g></g><g fill="#f8b34a" fill-opacity="1"><g transform="translate(239.826723, 330.747227)"><g><path d="M 27.109375 -83.792969 L 27.109375 -1.480469 C 27.109375 -0.820312 27.765625 0 28.917969 0 L 50.109375 0 C 51.261719 0 52.082031 -0.820312 52.082031 -1.480469 L 52.082031 -83.792969 Z M 1.808594 -108.929688 L 77.21875 -108.929688 C 78.371094 -108.929688 79.027344 -109.585938 79.027344 -110.40625 L 79.027344 -129.957031 C 79.027344 -130.617188 78.371094 -131.4375 77.21875 -131.4375 L 1.808594 -131.4375 C 0.820312 -131.4375 0 -130.617188 0 -129.957031 L 0 -110.40625 C 0 -109.585938 0.820312 -108.929688 1.808594 -108.929688 Z M 1.808594 -108.929688 "/></g></g></g></svg>